HIERARCHY
ROOT hip
{
  OFFSET 0 0 0
  CHANNELS 6 Xposition Yposition Zposition Zrotation Yrotation Xrotation
  JOINT abdomen
  {
    OFFSET 0 20.6881 -0.73152
    CHANNELS 3 Zrotation Xrotation Yrotation
    JOINT chest
    {
      OFFSET 0 11.7043 -0.48768
      CHANNELS 3 Zrotation Xrotation Yrotation
      JOINT neck
      {
        OFFSET 0 22.1894 -2.19456
        CHANNELS 3 Zrotation Xrotation Yrotation
        JOINT head
        {
          OFFSET -0.24384 7.07133 1.2192
          CHANNELS 3 Zrotation Xrotation Yrotation
          JOINT leftEye
          {
            OFFSET 4.14528 8.04674 8.04672
            CHANNELS 3 Zrotation Xrotation Yrotation
            End Site
            {
              OFFSET 1 0 0
            }
          }
          JOINT rightEye
          {
            OFFSET -3.6576 8.04674 8.04672
            CHANNELS 3 Zrotation Xrotation Yrotation
            End Site
            {
              OFFSET 1 0 0
            }
          }
        }
      }
      JOINT rCollar
      {
        OFFSET -2.68224 19.2634 -4.8768
        CHANNELS 3 Zrotation Xrotation Yrotation
        JOINT rShldr
        {
          OFFSET -8.77824 -1.95073 1.46304
          CHANNELS 3 Zrotation Xrotation Yrotation
          JOINT rForeArm
          {
            OFFSET -28.1742 -1.7115 0.48768
            CHANNELS 3 Zrotation Xrotation Yrotation
            JOINT rHand
            {
              OFFSET -22.5879 0.773209 7.07136
              CHANNELS 3 Zrotation Xrotation Yrotation
              JOINT rThumb1
              {
                OFFSET -1.2192 -0.487915 3.41376
                CHANNELS 3 Zrotation Xrotation Yrotation
                JOINT rThumb2
                {
                  OFFSET -3.37035 -0.52449 3.41376
                  CHANNELS 3 Zrotation Xrotation Yrotation
                  End Site
                  {
                    OFFSET -1.78271 -1.18214 1.43049
                  }
                }
              }
              JOINT rIndex1
              {
                OFFSET -7.75947 0.938293 5.60832
                CHANNELS 3 Zrotation Xrotation Yrotation
                JOINT rIndex2
                {
                  OFFSET -2.54057 -0.884171 1.56538
                  CHANNELS 3 Zrotation Xrotation Yrotation
                  End Site
                  {
                    OFFSET -1.62519 -0.234802 1.16502
                  }
                }
              }
              JOINT rMid1
              {
                OFFSET -8.24714 1.18213 3.41376
                CHANNELS 3 Zrotation Xrotation Yrotation
                JOINT rMid2
                {
                  OFFSET -3.10165 -0.590103 1.0647
                  CHANNELS 3 Zrotation Xrotation Yrotation
                  End Site
                  {
                    OFFSET -2.48547 -0.328903 0.83742
                  }
                }
              }
              JOINT rRing1
              {
                OFFSET -8.82822 0.546677 1.51678
                CHANNELS 3 Zrotation Xrotation Yrotation
                JOINT rRing2
                {
                  OFFSET -2.60934 -0.819778 -0.0198488
                  CHANNELS 3 Zrotation Xrotation Yrotation
                  End Site
                  {
                    OFFSET -2.33842 -0.294052 0.168128
                  }
                }
              }
              JOINT rPinky1
              {
                OFFSET -8.27202 -0.0477905 -0.4584
                CHANNELS 3 Zrotation Xrotation Yrotation
                JOINT rPinky2
                {
                  OFFSET -1.82734 -0.647385 -0.700984
                  CHANNELS 3 Zrotation Xrotation Yrotation
                  End Site
                  {
                    OFFSET -1.69225 -0.51767 -0.607171
                  }
                }
              }
            }
          }
        }
      }
      JOINT lCollar
      {
        OFFSET 2.68224 19.2634 -4.8768
        CHANNELS 3 Zrotation Xrotation Yrotation
        JOINT lShldr
        {
          OFFSET 8.77824 -1.95073 1.46304
          CHANNELS 3 Zrotation Xrotation Yrotation
          JOINT lForeArm
          {
            OFFSET 28.1742 -1.7115 0.48768
            CHANNELS 3 Zrotation Xrotation Yrotation
            JOINT lHand
            {
              OFFSET 22.5879 0.773209 7.07136
              CHANNELS 3 Zrotation Xrotation Yrotation
              JOINT lThumb1
              {
                OFFSET 1.2192 -0.487915 3.41376
                CHANNELS 3 Zrotation Xrotation Yrotation
                JOINT lThumb2
                {
                  OFFSET 3.37035 -0.52449 3.41376
                  CHANNELS 3 Zrotation Xrotation Yrotation
                  End Site
                  {
                    OFFSET 1.78271 -1.18214 1.43049
                  }
                }
              }
              JOINT lIndex1
              {
                OFFSET 7.75947 0.938293 5.60832
                CHANNELS 3 Zrotation Xrotation Yrotation
                JOINT lIndex2
                {
                  OFFSET 2.54057 -0.884171 1.56538
                  CHANNELS 3 Zrotation Xrotation Yrotation
                  End Site
                  {
                    OFFSET 1.62519 -0.234802 1.16502
                  }
                }
              }
              JOINT lMid1
              {
                OFFSET 8.24714 1.18213 3.41376
                CHANNELS 3 Zrotation Xrotation Yrotation
                JOINT lMid2
                {
                  OFFSET 3.10165 -0.590103 1.0647
                  CHANNELS 3 Zrotation Xrotation Yrotation
                  End Site
                  {
                    OFFSET 2.48547 -0.328903 0.83742
                  }
                }
              }
              JOINT lRing1
              {
                OFFSET 8.82822 0.546677 1.51678
                CHANNELS 3 Zrotation Xrotation Yrotation
                JOINT lRing2
                {
                  OFFSET 2.60934 -0.819778 -0.0198488
                  CHANNELS 3 Zrotation Xrotation Yrotation
                  End Site
                  {
                    OFFSET 2.33842 -0.294052 0.168128
                  }
                }
              }
              JOINT lPinky1
              {
                OFFSET 8.27202 -0.0477905 -0.4584
                CHANNELS 3 Zrotation Xrotation Yrotation
                JOINT lPinky2
                {
                  OFFSET 1.82734 -0.647385 -0.700984
                  CHANNELS 3 Zrotation Xrotation Yrotation
                  End Site
                  {
                    OFFSET 1.69225 -0.51767 -0.607171
                  }
                }
              }
            }
          }
        }
      }
    }
  }
  JOINT rButtock
  {
    OFFSET -8.77824 4.35084 1.2192
    CHANNELS 3 Zrotation Xrotation Yrotation
    JOINT rThigh
    {
      OFFSET 0 -1.70687 -2.19456
      CHANNELS 3 Zrotation Xrotation Yrotation
      JOINT rShin
      {
        OFFSET 0 -36.8199 0.73152
        CHANNELS 3 Zrotation Xrotation Yrotation
        JOINT rFoot
        {
          OFFSET 0.73152 -45.1104 -5.12064
          CHANNELS 3 Zrotation Xrotation Yrotation
          End Site
          {
            OFFSET -1.1221 -3.69964 12.103
          }
        }
      }
    }
  }
  JOINT lButtock
  {
    OFFSET 8.77824 4.35084 1.2192
    CHANNELS 3 Zrotation Xrotation Yrotation
    JOINT lThigh
    {
      OFFSET 0 -1.70687 -2.19456
      CHANNELS 3 Zrotation Xrotation Yrotation
      JOINT lShin
      {
        OFFSET 0 -36.8199 0.73152
        CHANNELS 3 Zrotation Xrotation Yrotation
        JOINT lFoot
        {
          OFFSET -0.73152 -45.1104 -5.12064
          CHANNELS 3 Zrotation Xrotation Yrotation
          End Site
          {
            OFFSET 1.1221 -3.69964 12.103
          }
        }
      }
    }
  }
}
MOTION
Frames:	4
Frame Time:	0.03333
-13.223199999999999 51.274 -65.8004 163.90293 -49.988029 -156.615574 -16.269248 12.240171 -44.497064 12.151664 -6.611708 47.47011 -19.108745 21.722998 -68.12388 38.308496 1.047471 39.735348 -5.841805 -1.037495 20.124707 8.005619 0.947802 13.482412 40.0691 -86.849734 19.851048 -118.170209 -7.55968 167.257666 -21.751406 4.940428 -45.041456 81.255633 -64.63471 67.837711 4.804193 -2.336875 1.841726 -136.263588 -48.102726 128.287397 -79.540871 40.110858 71.95834 105.60058 -69.883926 71.610292 -170.554598 -37.810929 138.149704 0.875127 14.247965 11.647243 -70.15677 68.938955 92.496162 -148.016738 -60.619768 -158.079198 1.448627 3.988269 -5.463864 11.249423 38.987931 9.522682 1.404741 36.617925 -2.111567 101.637717 -20.347338 -175.993004 176.416647 0.54718 82.888185 8.688296 -24.866504 9.06977 96.390033 33.408476 -51.83119 77.447716 -0.03372 -58.916954 150.864088 -16.441531 -110.460828 112.089039 18.046734 -100.560967 14.361955 34.499693 -3.863537 -97.042325 -64.836456 -72.319766 147.666051 -13.083848 172.523409 -23.008807 66.687489 23.89855 120.877967 -47.169865 110.649691 80.957303 -37.603928 84.708565 -31.941731 12.9864 -34.021323 55.50768 -76.733208 -160.95133 74.547524 -74.294313 -171.618352 16.148168 7.713739 59.949618 -160.785459 77.907429 -19.617617 -85.207732 75.491054 84.757153 -6.474461 -39.360624 -49.655308 -89.745453 -60.081556 174.630675
-13.061800000000002 51.45420000000001 -67.8836 164.947312 -50.050787 -156.470641 -15.674083 8.317399 -145.056603 2.273607 10.262267 146.999116 0.562164 18.052007 67.407596 -31.865489 -7.814642 -97.541673 -9.88622 -1.55133 17.79358 10.767087 1.628809 17.155815 -1.003652 -1.700173 4.970514 -108.547662 29.729194 102.257832 -8.425905 1.632295 -54.708971 131.905031 -56.277161 115.869922 0.548378 3.024871 2.588386 74.508706 -86.17311 2.120547 -4.831733 16.97948 9.154068 -133.448912 19.967861 86.875414 -9.429018 28.48365 15.423797 -34.145716 64.576323 19.434731 -136.495737 22.607181 166.788401 -113.154844 -67.226169 -136.690336 3.786781 17.99574 -0.867725 -22.476327 -38.941235 -27.124299 -1.345706 19.431104 3.242683 97.234351 -28.785295 165.858708 -6.140798 -7.650702 131.763631 160.858595 20.49433 -133.976085 0.456736 -3.201654 -2.251469 127.077901 -12.532652 -111.612203 151.914597 -16.487761 -109.43832 -22.812454 11.634362 -11.396589 162.793877 -6.028703 -150.991687 35.219258 74.641096 -22.913229 4.41406 4.534577 1.343822 133.576407 33.612423 -159.534523 160.849753 51.146129 156.622818 4.372298 33.835827 -7.320665 4.626349 -1.067287 -5.884559 -77.223906 -65.879218 -171.250686 -82.808943 -6.84743 152.718313 -123.029108 46.590023 45.523889 -0.805623 -2.780681 0.995626 15.604042 16.718266 -4.289758 6.589544 36.168947 108.00048 -113.360324 57.897754 21.889723
-13.0168 51.775800000000004 -69.9913 167.564292 -46.816026 -156.907786 -15.683032 11.58837 -0.0 5.349542 -14.383176 2.658569 -19.168775 21.809567 -69.491267 39.676395 2.67065 43.151262 -12.696956 -1.969777 17.567476 13.579907 2.115776 17.631489 4.655601 -26.340481 1.126891 -104.956666 21.946972 117.462891 -178.741963 -37.490366 -157.993865 -9.199472 45.975866 1.237447 -179.390259 -19.932764 87.740951 -14.486063 -53.905769 1.162855 -151.186664 -34.003185 121.522042 -143.622943 21.58293 128.073574 0.437907 17.887565 8.777589 -171.578966 -1.538745 150.159418 8.255971 -14.079218 3.99399 2.111942 0.039973 -0.681788 4.260454 25.106635 1.387764 -157.567466 46.049443 -144.617867 152.11947 -24.169919 -174.558368 66.519257 30.449097 -19.196672 -104.247524 -22.7677 80.408899 56.859856 55.394443 -34.815208 9.042305 6.732262 -2.691842 99.112273 18.302377 -85.156432 148.964949 -11.396939 -106.739377 -174.147846 -44.435935 -81.390226 168.666849 -66.449283 -159.504527 144.356963 22.207461 -148.959616 6.836294 24.431287 -3.775778 143.216806 -7.373601 -158.674407 135.168542 -31.460616 125.84233 -20.434529 26.280815 10.391058 -0.184206 -1.20363 -8.701798 -65.854293 -69.410902 -159.420882 -91.403261 -10.049183 -28.677846 168.352563 24.63814 -92.967912 -166.883297 79.587339 -9.759721 -86.107596 80.734072 -180.0 -39.568191 -2.335515 -36.847979 151.127562 2.88502 -166.416586
-13.136999999999999 52.4041 -72.3696 169.864695 -45.598124 -157.629454 -14.089228 10.716713 2.084018 4.421827 -14.124637 0.999702 1.257645 17.501397 69.338347 -32.27723 -6.945914 -97.681598 -13.340295 -1.776935 15.107716 10.629404 2.129062 22.592044 -157.173784 -4.55699 156.234988 -98.390821 -44.948593 -112.422196 39.239274 69.556443 -92.878234 162.311901 -22.037192 141.266703 -172.72247 -15.841768 89.563654 146.939196 -39.290688 98.861639 0.099308 16.299202 5.385045 -167.108467 -11.122342 92.516212 20.959 -22.191915 2.348607 -7.267283 -14.152088 -2.383101 -133.603407 7.940639 167.373918 18.326523 -62.298699 -14.10986 -17.624179 -9.518338 -9.856361 -143.790744 14.768747 -138.021992 74.621991 -78.882526 98.635494 51.003315 -16.367208 44.994229 -96.879209 -24.192009 103.798673 54.099557 53.988327 -32.654786 7.763195 7.489728 -1.31984 -29.395346 -65.397513 22.13159 164.982287 -29.203607 -108.21675 -178.332047 -25.858029 -79.560084 -1.817535 -17.310745 11.647 -91.520987 -62.765647 -55.771337 7.388673 27.049984 -2.390533 -12.828884 27.631337 -21.013828 152.42807 9.228309 142.823707 -0.283155 12.630955 10.709391 12.643364 -2.846896 3.098478 -79.415851 -58.983313 -180.0 -80.466534 -21.938561 101.265595 -32.293312 1.826594 -11.837147 1.671531 -3.621949 -2.040313 9.420638 13.530157 -67.21328 -37.074345 7.922981 -19.857915 14.882744 10.795088 121.390311
